<svg width="291" height="141" viewBox="0 0 291 141" fill="none" xmlns="http://www.w3.org/2000/svg">
<rect width="291" height="87" rx="17" fill="#313131"/>
<rect x="17" y="17" width="257" height="53" fill="white"/>
<path d="M47.08 39.696V49.104C47.08 52.128 48.4613 53.64 51.224 53.64C53.352 53.64 54.752 52.632 55.424 50.616C55.6107 49.9813 55.8347 49.552 56.096 49.328C56.3947 49.104 56.8613 48.992 57.496 48.992H68.92C69.256 48.992 69.536 49.1227 69.76 49.384C70.0213 49.608 70.152 49.888 70.152 50.224C70.152 53.472 69.2187 56.1973 67.352 58.4C63.9173 62.5067 58.56 64.56 51.28 64.56C45.568 64.56 41.0133 63.3093 37.616 60.808C34.2187 58.2693 32.52 54.3867 32.52 49.16V39.64C32.52 34.5253 34.256 30.68 37.728 28.104C41.2 25.528 45.7173 24.24 51.28 24.24C58.56 24.24 63.9173 26.2933 67.352 30.4C69.2187 32.6027 70.152 35.328 70.152 38.576C70.152 38.912 70.0213 39.2107 69.76 39.472C69.536 39.696 69.256 39.808 68.92 39.808H57.496C56.8987 39.808 56.4507 39.696 56.152 39.472C55.8907 39.248 55.648 38.8187 55.424 38.184C54.7147 36.168 53.3147 35.16 51.224 35.16C48.4613 35.16 47.08 36.672 47.08 39.696ZM73.7959 51.344V47.536C73.7959 43.28 75.3079 40.0133 78.3319 37.736C81.3559 35.4587 85.2573 34.32 90.0359 34.32C94.8146 34.32 98.7159 35.4587 101.74 37.736C104.764 40.0133 106.276 43.28 106.276 47.536V51.344C106.276 55.6373 104.82 58.9227 101.908 61.2C98.9959 63.44 95.0386 64.56 90.0359 64.56C85.0333 64.56 81.0759 63.44 78.1639 61.2C75.2519 58.9227 73.7959 55.6373 73.7959 51.344ZM92.5559 51.792V47.088C92.5559 45.6693 92.3693 44.68 91.9959 44.12C91.6226 43.56 90.9693 43.28 90.0359 43.28C89.1026 43.28 88.4493 43.56 88.0759 44.12C87.7026 44.68 87.5159 45.6693 87.5159 47.088V51.792C87.5159 53.2853 87.7026 54.2933 88.0759 54.816C88.4493 55.3387 89.1026 55.6 90.0359 55.6C90.9693 55.6 91.6226 55.32 91.9959 54.76C92.3693 54.2 92.5559 53.2107 92.5559 51.792ZM125.338 39.696V49.104C125.338 52.128 126.719 53.64 129.482 53.64C131.61 53.64 133.01 52.632 133.682 50.616C133.868 49.9813 134.092 49.552 134.354 49.328C134.652 49.104 135.119 48.992 135.754 48.992H147.178C147.514 48.992 147.794 49.1227 148.018 49.384C148.279 49.608 148.41 49.888 148.41 50.224C148.41 53.472 147.476 56.1973 145.61 58.4C142.175 62.5067 136.818 64.56 129.538 64.56C123.826 64.56 119.271 63.3093 115.874 60.808C112.476 58.2693 110.778 54.3867 110.778 49.16V39.64C110.778 34.5253 112.514 30.68 115.986 28.104C119.458 25.528 123.975 24.24 129.538 24.24C136.818 24.24 142.175 26.2933 145.61 30.4C147.476 32.6027 148.41 35.328 148.41 38.576C148.41 38.912 148.279 39.2107 148.018 39.472C147.794 39.696 147.514 39.808 147.178 39.808H135.754C135.156 39.808 134.708 39.696 134.41 39.472C134.148 39.248 133.906 38.8187 133.682 38.184C132.972 36.168 131.572 35.16 129.482 35.16C126.719 35.16 125.338 36.672 125.338 39.696ZM152.054 51.344V47.536C152.054 43.28 153.566 40.0133 156.59 37.736C159.614 35.4587 163.515 34.32 168.294 34.32C173.072 34.32 176.974 35.4587 179.998 37.736C183.022 40.0133 184.534 43.28 184.534 47.536V51.344C184.534 55.6373 183.078 58.9227 180.166 61.2C177.254 63.44 173.296 64.56 168.294 64.56C163.291 64.56 159.334 63.44 156.422 61.2C153.51 58.9227 152.054 55.6373 152.054 51.344ZM170.814 51.792V47.088C170.814 45.6693 170.627 44.68 170.254 44.12C169.88 43.56 169.227 43.28 168.294 43.28C167.36 43.28 166.707 43.56 166.334 44.12C165.96 44.68 165.774 45.6693 165.774 47.088V51.792C165.774 53.2853 165.96 54.2933 166.334 54.816C166.707 55.3387 167.36 55.6 168.294 55.6C169.227 55.6 169.88 55.32 170.254 54.76C170.627 54.2 170.814 53.2107 170.814 51.792ZM188.476 51.624V47.2C188.476 43.0187 189.596 39.8267 191.836 37.624C194.076 35.4213 196.801 34.32 200.012 34.32C203.26 34.32 205.854 35.1973 207.796 36.952V25.752C207.796 25.3413 207.945 24.9867 208.244 24.688C208.542 24.3893 208.897 24.24 209.308 24.24H219.668C220.078 24.24 220.433 24.3893 220.732 24.688C221.03 24.9867 221.18 25.3413 221.18 25.752V62.488C221.18 62.8987 221.03 63.2533 220.732 63.552C220.433 63.8507 220.078 64 219.668 64H210.148C209.737 64 209.382 63.8507 209.084 63.552C208.785 63.2533 208.636 62.8987 208.636 62.488V60.808C206.694 63.3093 203.95 64.56 200.404 64.56C196.857 64.56 193.982 63.5147 191.78 61.424C189.577 59.296 188.476 56.0293 188.476 51.624ZM207.796 51.288V47.144C207.684 45.2773 206.75 44.344 204.996 44.344C203.129 44.344 202.196 45.4267 202.196 47.592V51.288C202.196 53.4533 203.129 54.536 204.996 54.536C206.862 54.536 207.796 53.4533 207.796 51.288ZM256.345 52.744H239.657V53.024C239.657 55.3013 240.385 56.44 241.841 56.44C242.251 56.44 242.755 56.1413 243.353 55.544C243.95 54.9467 244.603 54.648 245.313 54.648H255.897C256.718 54.648 257.129 55.0587 257.129 55.88C257.129 57.7093 255.747 59.6133 252.985 61.592C250.259 63.5707 246.545 64.56 241.841 64.56C237.174 64.56 233.347 63.3467 230.361 60.92C227.411 58.456 225.937 55.0773 225.937 50.784V48.096C225.937 44.0267 227.449 40.7227 230.473 38.184C233.497 35.608 237.454 34.32 242.345 34.32C247.273 34.32 251.081 35.7573 253.769 38.632C256.494 41.5067 257.857 45.1467 257.857 49.552V51.232C257.857 51.6427 257.707 51.9973 257.409 52.296C257.11 52.5947 256.755 52.744 256.345 52.744ZM244.137 45.52C244.137 43.28 243.39 42.16 241.897 42.16C240.403 42.16 239.657 43.28 239.657 45.52V45.744H244.137V45.52Z" fill="#313131"/>
<rect y="124" width="188" height="17" rx="8.5" fill="#313131"/>
<rect y="97" width="244" height="17" rx="8.5" fill="#313131"/>
</svg>
