<svg width="291" height="141" viewBox="0 0 291 141" fill="none" xmlns="http://www.w3.org/2000/svg">
<rect y="27" width="291" height="87" rx="17" fill="#313131"/>
<rect x="17" y="44" width="257" height="53" fill="white"/>
<path d="M47.08 66.696V76.104C47.08 79.128 48.4613 80.64 51.224 80.64C53.352 80.64 54.752 79.632 55.424 77.616C55.6107 76.9813 55.8347 76.552 56.096 76.328C56.3947 76.104 56.8613 75.992 57.496 75.992H68.92C69.256 75.992 69.536 76.1227 69.76 76.384C70.0213 76.608 70.152 76.888 70.152 77.224C70.152 80.472 69.2187 83.1973 67.352 85.4C63.9173 89.5067 58.56 91.56 51.28 91.56C45.568 91.56 41.0133 90.3093 37.616 87.808C34.2187 85.2693 32.52 81.3867 32.52 76.16V66.64C32.52 61.5253 34.256 57.68 37.728 55.104C41.2 52.528 45.7173 51.24 51.28 51.24C58.56 51.24 63.9173 53.2933 67.352 57.4C69.2187 59.6027 70.152 62.328 70.152 65.576C70.152 65.912 70.0213 66.2107 69.76 66.472C69.536 66.696 69.256 66.808 68.92 66.808H57.496C56.8987 66.808 56.4507 66.696 56.152 66.472C55.8907 66.248 55.648 65.8187 55.424 65.184C54.7147 63.168 53.3147 62.16 51.224 62.16C48.4613 62.16 47.08 63.672 47.08 66.696ZM73.7959 78.344V74.536C73.7959 70.28 75.3079 67.0133 78.3319 64.736C81.3559 62.4587 85.2573 61.32 90.0359 61.32C94.8146 61.32 98.7159 62.4587 101.74 64.736C104.764 67.0133 106.276 70.28 106.276 74.536V78.344C106.276 82.6373 104.82 85.9227 101.908 88.2C98.9959 90.44 95.0386 91.56 90.0359 91.56C85.0333 91.56 81.0759 90.44 78.1639 88.2C75.2519 85.9227 73.7959 82.6373 73.7959 78.344ZM92.5559 78.792V74.088C92.5559 72.6693 92.3693 71.68 91.9959 71.12C91.6226 70.56 90.9693 70.28 90.0359 70.28C89.1026 70.28 88.4493 70.56 88.0759 71.12C87.7026 71.68 87.5159 72.6693 87.5159 74.088V78.792C87.5159 80.2853 87.7026 81.2933 88.0759 81.816C88.4493 82.3387 89.1026 82.6 90.0359 82.6C90.9693 82.6 91.6226 82.32 91.9959 81.76C92.3693 81.2 92.5559 80.2107 92.5559 78.792ZM125.338 66.696V76.104C125.338 79.128 126.719 80.64 129.482 80.64C131.61 80.64 133.01 79.632 133.682 77.616C133.868 76.9813 134.092 76.552 134.354 76.328C134.652 76.104 135.119 75.992 135.754 75.992H147.178C147.514 75.992 147.794 76.1227 148.018 76.384C148.279 76.608 148.41 76.888 148.41 77.224C148.41 80.472 147.476 83.1973 145.61 85.4C142.175 89.5067 136.818 91.56 129.538 91.56C123.826 91.56 119.271 90.3093 115.874 87.808C112.476 85.2693 110.778 81.3867 110.778 76.16V66.64C110.778 61.5253 112.514 57.68 115.986 55.104C119.458 52.528 123.975 51.24 129.538 51.24C136.818 51.24 142.175 53.2933 145.61 57.4C147.476 59.6027 148.41 62.328 148.41 65.576C148.41 65.912 148.279 66.2107 148.018 66.472C147.794 66.696 147.514 66.808 147.178 66.808H135.754C135.156 66.808 134.708 66.696 134.41 66.472C134.148 66.248 133.906 65.8187 133.682 65.184C132.972 63.168 131.572 62.16 129.482 62.16C126.719 62.16 125.338 63.672 125.338 66.696ZM152.054 78.344V74.536C152.054 70.28 153.566 67.0133 156.59 64.736C159.614 62.4587 163.515 61.32 168.294 61.32C173.072 61.32 176.974 62.4587 179.998 64.736C183.022 67.0133 184.534 70.28 184.534 74.536V78.344C184.534 82.6373 183.078 85.9227 180.166 88.2C177.254 90.44 173.296 91.56 168.294 91.56C163.291 91.56 159.334 90.44 156.422 88.2C153.51 85.9227 152.054 82.6373 152.054 78.344ZM170.814 78.792V74.088C170.814 72.6693 170.627 71.68 170.254 71.12C169.88 70.56 169.227 70.28 168.294 70.28C167.36 70.28 166.707 70.56 166.334 71.12C165.96 71.68 165.774 72.6693 165.774 74.088V78.792C165.774 80.2853 165.96 81.2933 166.334 81.816C166.707 82.3387 167.36 82.6 168.294 82.6C169.227 82.6 169.88 82.32 170.254 81.76C170.627 81.2 170.814 80.2107 170.814 78.792ZM188.476 78.624V74.2C188.476 70.0187 189.596 66.8267 191.836 64.624C194.076 62.4213 196.801 61.32 200.012 61.32C203.26 61.32 205.854 62.1973 207.796 63.952V52.752C207.796 52.3413 207.945 51.9867 208.244 51.688C208.542 51.3893 208.897 51.24 209.308 51.24H219.668C220.078 51.24 220.433 51.3893 220.732 51.688C221.03 51.9867 221.18 52.3413 221.18 52.752V89.488C221.18 89.8987 221.03 90.2533 220.732 90.552C220.433 90.8507 220.078 91 219.668 91H210.148C209.737 91 209.382 90.8507 209.084 90.552C208.785 90.2533 208.636 89.8987 208.636 89.488V87.808C206.694 90.3093 203.95 91.56 200.404 91.56C196.857 91.56 193.982 90.5147 191.78 88.424C189.577 86.296 188.476 83.0293 188.476 78.624ZM207.796 78.288V74.144C207.684 72.2773 206.75 71.344 204.996 71.344C203.129 71.344 202.196 72.4267 202.196 74.592V78.288C202.196 80.4533 203.129 81.536 204.996 81.536C206.862 81.536 207.796 80.4533 207.796 78.288ZM256.345 79.744H239.657V80.024C239.657 82.3013 240.385 83.44 241.841 83.44C242.251 83.44 242.755 83.1413 243.353 82.544C243.95 81.9467 244.603 81.648 245.313 81.648H255.897C256.718 81.648 257.129 82.0587 257.129 82.88C257.129 84.7093 255.747 86.6133 252.985 88.592C250.259 90.5707 246.545 91.56 241.841 91.56C237.174 91.56 233.347 90.3467 230.361 87.92C227.411 85.456 225.937 82.0773 225.937 77.784V75.096C225.937 71.0267 227.449 67.7227 230.473 65.184C233.497 62.608 237.454 61.32 242.345 61.32C247.273 61.32 251.081 62.7573 253.769 65.632C256.494 68.5067 257.857 72.1467 257.857 76.552V78.232C257.857 78.6427 257.707 78.9973 257.409 79.296C257.11 79.5947 256.755 79.744 256.345 79.744ZM244.137 72.52C244.137 70.28 243.39 69.16 241.897 69.16C240.403 69.16 239.657 70.28 239.657 72.52V72.744H244.137V72.52Z" fill="#313131"/>
<rect y="124" width="188" height="17" rx="8.5" fill="#313131"/>
<rect width="244" height="17" rx="8.5" fill="#313131"/>
</svg>
